Coordinates
version=1
nRows=5
nColumns=40
inDegrees=yes

Units are S.I. units (second, meters, Newtons, ...)
If the header above contains a line with 'inDegrees', this indicates whether rotational values are in degrees (yes) or radians (no).

endheader
time	pelvis_tilt	pelvis_list	pelvis_rotation	pelvis_tx	pelvis_ty	pelvis_tz	hip_flexion_r	hip_adduction_r	hip_rotation_r	knee_angle_r	knee_angle_r_beta	ankle_angle_r	subtalar_angle_r	mtp_angle_r	hip_flexion_l	hip_adduction_l	hip_rotation_l	knee_angle_l	knee_angle_l_beta	ankle_angle_l	subtalar_angle_l	mtp_angle_l	lumbar_extension	lumbar_bending	lumbar_rotation	arm_flex_r	arm_add_r	arm_rot_r	elbow_flex_r	pro_sup_r	wrist_flex_r	wrist_dev_r	arm_flex_l	arm_add_l	arm_rot_l	elbow_flex_l	pro_sup_l	wrist_flex_l	wrist_dev_l
      4.95000000	    -32.39808986	     -2.79449671	     -1.38147320	     -0.45607806	      0.67918592	     -0.93540737	     89.44973607	    -10.24206611	      2.69897520	     92.14187281	      1.60817906	     34.38077954	      0.00000000	      0.00000000	     92.69427109	    -19.50495977	      8.74606222	     91.44981877	      1.59610044	     31.90606898	      0.00000000	      0.00000000	    -18.72439843	      2.44610026	      4.92455212	     12.80791228	    -54.36100509	     78.68148315	     90.95022343	     86.53377381	      0.00000000	      0.00000000	    -14.54382445	    -49.37961412	     41.98425113	     97.69907759	     87.54773481	      0.00000000	      0.00000000
      4.95500000	    -32.44474025	     -2.80669166	     -1.34562715	     -0.45608990	      0.67899391	     -0.93543934	     89.51958362	    -10.28243487	      2.68205799	     92.19103064	      1.60903703	     34.35923849	      0.00000000	      0.00000000	     92.75895061	    -19.47636836	      8.75512612	     91.46036879	      1.59628457	     31.89457853	      0.00000000	      0.00000000	    -18.71199391	      2.49748536	      4.48760958	     13.87956544	    -54.21697707	     79.81833325	     90.90007175	     86.53798387	      0.00000000	      0.00000000	    -15.66083293	    -49.09876018	     40.68509030	     97.72730984	     87.57795183	      0.00000000	      0.00000000
      4.96000000	    -32.46695061	     -2.82579492	     -1.35205905	     -0.45603342	      0.67890305	     -0.93541368	     89.53237077	    -10.26501765	      2.66702071	     92.19243187	      1.60906148	     34.39363761	      0.00000000	      0.00000000	     92.80503564	    -19.48333462	      8.79702657	     91.48365187	      1.59669094	     31.84694360	      0.00000000	      0.00000000	    -18.68885853	      2.51969929	      5.03226939	     12.61384025	    -54.41396643	     78.51447283	     90.98797919	     86.09750255	      0.00000000	      0.00000000	    -14.35656522	    -49.35266353	     42.16259739	     97.61746365	     87.67676176	      0.00000000	      0.00000000
      4.96500000	    -32.47862246	     -2.75644411	     -1.33836462	     -0.45603879	      0.67879491	     -0.93539546	     89.59723341	    -10.28582751	      2.74559605	     92.23598230	      1.60982158	     34.36447872	      0.00000000	      0.00000000	     92.79670494	    -19.48527137	      8.70563940	     91.48632829	      1.59673765	     31.87096064	      0.00000000	      0.00000000	    -18.71194706	      2.43830055	      5.27841886	     11.79003105	    -54.51056032	     77.59600867	     91.08025248	     85.30013865	      0.00000000	      0.00000000	    -13.72152438	    -49.49330263	     42.86012936	     97.60007318	     87.83386561	      0.00000000	      0.00000000
      4.97000000	    -32.42328705	     -2.73690026	     -1.33305418	     -0.45572818	      0.67873358	     -0.93537627	     89.51318645	    -10.27112653	      2.80711906	     92.26509442	      1.61032968	     34.48637879	      0.00000000	      0.00000000	     92.70689316	    -19.49052657	      8.67459803	     91.50713400	      1.59710078	     31.96215617	      0.00000000	      0.00000000	    -18.77524594	      2.44690693	      4.85493499	     12.90902670	    -54.34259300	     78.69832508	     90.92979014	     86.53116910	      0.00000000	      0.00000000	    -14.88343906	    -49.25606739	     41.57487025	     97.64392983	     87.63055530	      0.00000000	      0.00000000
